<svg xmlns="http://www.w3.org/2000/svg" viewBox="0 0 128 128" role="img" aria-label="Moonlit Blossom mark">
  <rect width="128" height="128" rx="28" fill="none"/>
  <circle cx="64" cy="64" r="38" fill="none" stroke="#f8efe6" stroke-width="5"/>
  <path d="M82 31c-17 5-29 20-29 38 0 13 6 24 15 31-22-3-39-22-39-45 0-25 20-45 45-45 3 0 6 0 8 1Z" fill="#f8efe6"/>
  <path d="M71 35c10 9 15 19 15 31 0 11-5 21-15 30-10-9-15-19-15-30 0-12 5-22 15-31Z" fill="#d55d55"/>
  <path d="M71 45c6 7 9 14 9 21s-3 14-9 21c-6-7-9-14-9-21s3-14 9-21Z" fill="#f2d7c4"/>
  <circle cx="92" cy="37" r="5" fill="#dac99a"/>
</svg>
